# xmcd
#
# Track frame offsets: 
#        150
#        21345
#        34715
#        50350
#        62140
#        76665
#        86407
#        104340
#        123600
#        134127
#        147022
#        166292
#        184945
#        198097
#        211867
#        224760
#        236620
#        248357
#        261475
#        270102
#
# Disc length: 3842 seconds
#
# Revision: 6
# Processed by: cddbd v1.5.2PL0 Copyright (c) Steve Scherf et al.
# Submitted via: ExactAudioCopy v1.0b3
#
DISCID=1c0f0014
DTITLE=Louis Prima - The Best Of
DYEAR=1996
DGENRE=Easy Listening
TTITLE0=Medley: Just A Gigolo - I Ain't Got Nobody
TTITLE1=Buona Sera
TTITLE2=Jump, Jive An' Wail
TTITLE3=(Nothing's Too Good) For My Baby
TTITLE4=(I'll be glad When You're Death) You Rascal You
TTITLE5=5 Months, 2 Weeks , 2 Days
TTITLE6=Medley: When You're Smiling - The Sheik Of Araby
TTITLE7=When The Saints Go Marching In
TTITLE8=Pennies From Heaven
TTITLE9=Autumn Leaves
TTITLE10=Medley: Angelina - Zooma Zooma
TTITLE11=Sing, Sing, Sing
TTITLE12=That Old Black Magic
TTITLE13=Fever
TTITLE14=Hey, Boy ! Hey, Girl !
TTITLE15=I've Got You Under My Skin
TTITLE16=Just One Of Those Things
TTITLE17=St. Louis Blues
TTITLE18=Twist All Night
TTITLE19=I Wan'na Be Like You
EXTD=YEAR: 1996
EXTT0=
EXTT1=
EXTT2=
EXTT3=
EXTT4=
EXTT5=
EXTT6=
EXTT7=
EXTT8=
EXTT9=
EXTT10=
EXTT11=
EXTT12=
EXTT13=
EXTT14=
EXTT15=
EXTT16=
EXTT17=
EXTT18=
EXTT19=
PLAYORDER=
